<svg xmlns="http://www.w3.org/2000/svg" width="512" height="512" viewBox="0 0 512 512" version="1.1"><path d="" stroke="none" fill="#080404" fill-rule="evenodd"/><path d="M 45.500 27.035 C 43.850 27.537, 41.213 29.148, 39.639 30.617 C 34.583 35.335, 34 38.215, 34 58.474 L 34 77.011 17 111 L 0 144.989 0 161.945 C 0 180.456, 0.939 186.888, 4.755 194.500 C 10.054 205.072, 18.983 212.841, 30.063 216.521 L 35 218.161 35 321.432 L 35 424.703 26.505 425.302 C 16.320 426.021, 10.720 428.276, 6.125 433.510 C 0.501 439.916, -0 442.154, -0 460.891 C -0 477.631, 0.033 477.885, 2.564 480.894 C 3.975 482.570, 6.787 484.402, 8.814 484.965 C 13.954 486.393, 498.065 486.387, 503.206 484.960 C 505.461 484.333, 508.103 482.485, 509.956 480.237 L 513 476.544 513 459.213 C 513 449.293, 512.618 442.118, 512.107 442.434 C 511.615 442.738, 510.951 441.939, 510.629 440.660 C 509.676 436.862, 502.358 429.361, 497.844 427.554 C 495.540 426.633, 489.908 425.614, 485.328 425.291 L 477 424.703 477 321.432 L 477 218.161 481.937 216.521 C 496.164 211.796, 508.495 198.264, 510.606 185.060 C 510.967 182.803, 511.654 180.714, 512.131 180.419 C 512.609 180.124, 513 171.557, 513 161.382 C 513 151.207, 512.644 143.102, 512.208 143.371 C 511.773 143.640, 503.898 128.815, 494.708 110.426 L 478 76.992 478 58.312 C 478 37.019, 477.101 33.580, 470.338 29 L 466.647 26.500 291.735 26.500 L 116.823 26.500 114.912 28.861 C 112.083 32.354, 112.412 37.392, 115.635 39.927 L 118.270 42 290.135 42 L 462 42 462 56.500 L 462 71 256 71 L 50 71 50 56.500 L 50 42 68.865 42 C 86.436 42, 87.911 41.858, 90.365 39.927 C 93.587 37.393, 93.917 32.355, 91.090 28.861 C 89.206 26.532, 88.905 26.497, 68.840 26.312 C 57.653 26.208, 47.150 26.534, 45.500 27.035 M 33.741 112.505 C 26.733 126.533, 21 138.240, 21 138.522 C 21 138.803, 32.767 138.913, 47.148 138.767 L 73.296 138.500 79.232 122 C 82.497 112.925, 86.664 101.338, 88.494 96.250 L 91.820 87 69.151 87 L 46.482 87 33.741 112.505 M 99.500 112.134 C 94.550 125.954, 90.348 137.660, 90.161 138.147 C 89.968 138.652, 101.331 138.918, 116.572 138.767 L 143.322 138.500 148.632 114 C 151.553 100.525, 153.955 88.938, 153.971 88.250 C 153.993 87.286, 148.800 87.001, 131.250 87.003 L 108.500 87.007 99.500 112.134 M 164.949 113.005 L 159.399 139 186.106 139 L 212.812 139 213.387 134.250 C 213.704 131.637, 214.427 122.525, 214.995 114 C 215.563 105.475, 216.290 95.912, 216.612 92.750 L 217.196 87 193.848 87.005 L 170.500 87.010 164.949 113.005 M 232.575 91.250 C 232.273 93.588, 231.572 102.250, 231.018 110.500 C 230.463 118.750, 229.736 128.537, 229.403 132.250 L 228.797 139 256 139 L 283.203 139 282.597 132.250 C 282.264 128.537, 281.537 118.750, 280.982 110.500 C 280.428 102.250, 279.727 93.588, 279.425 91.250 L 278.877 87 256 87 L 233.123 87 232.575 91.250 M 295.388 92.750 C 295.710 95.912, 296.437 105.475, 297.005 114 C 297.573 122.525, 298.296 131.637, 298.613 134.250 L 299.188 139 325.894 139 L 352.601 139 347.051 113.005 L 341.500 87.010 318.152 87.005 L 294.804 87 295.388 92.750 M 358.028 88.250 C 358.043 88.938, 360.429 100.525, 363.329 114 L 368.602 138.500 395.390 138.767 C 410.653 138.918, 422.032 138.652, 421.839 138.147 C 421.652 137.660, 417.450 125.954, 412.500 112.134 L 403.500 87.007 380.750 87.003 C 363.200 87.001, 358.006 87.286, 358.028 88.250 M 423.506 96.250 C 425.336 101.338, 429.503 112.925, 432.768 122 L 438.704 138.500 464.852 138.767 C 479.233 138.913, 491 138.803, 491 138.522 C 491 138.240, 485.267 126.533, 478.259 112.505 L 465.518 87 442.849 87 L 420.180 87 423.506 96.250 M 0.417 162.500 C 0.418 172.950, 0.566 177.089, 0.746 171.698 C 0.926 166.307, 0.925 157.757, 0.744 152.698 C 0.563 147.639, 0.416 152.050, 0.417 162.500 M 16.010 167.750 C 16.019 180.055, 16.265 182.026, 18.356 186.500 C 24.451 199.542, 39 205.945, 52.266 201.425 C 58.310 199.366, 64.905 193.470, 67.981 187.377 C 70.177 183.028, 70.485 180.958, 70.833 168.250 L 71.222 154 43.611 154 L 16 154 16.010 167.750 M 87.010 167.750 C 87.019 180.099, 87.261 182.018, 89.386 186.581 C 99.410 208.109, 129.639 208.132, 139.123 186.618 C 141.009 182.342, 141.449 179.238, 141.803 167.750 L 142.227 154 114.613 154 L 87 154 87.010 167.750 M 158.178 168.750 C 158.536 185.153, 159.487 188.420, 165.713 194.647 C 171.488 200.421, 176.511 202.454, 185 202.452 C 196.998 202.448, 205.410 196.986, 210.333 186 C 211.937 182.420, 212.442 178.690, 212.803 167.750 L 213.256 154 185.556 154 L 157.856 154 158.178 168.750 M 228.333 155.574 C 227.151 158.654, 228.704 181.356, 230.370 185.342 C 232.877 191.343, 237.382 196.341, 243.176 199.551 C 247.743 202.081, 249.566 202.500, 256 202.500 C 262.434 202.500, 264.257 202.081, 268.824 199.551 C 271.752 197.929, 275.470 194.931, 277.088 192.889 C 282.416 186.161, 283.282 182.747, 283.396 168 L 283.500 154.500 256.225 154.234 C 231.945 153.997, 228.882 154.144, 228.333 155.574 M 299.197 167.750 C 299.558 178.690, 300.063 182.420, 301.667 186 C 304.543 192.418, 308.493 196.697, 314.380 199.774 C 318.603 201.981, 320.813 202.450, 327 202.452 C 335.489 202.454, 340.512 200.421, 346.287 194.647 C 352.513 188.420, 353.464 185.153, 353.822 168.750 L 354.144 154 326.444 154 L 298.744 154 299.197 167.750 M 370.197 167.750 C 370.551 179.238, 370.991 182.342, 372.877 186.618 C 382.361 208.132, 412.590 208.109, 422.614 186.581 C 424.739 182.018, 424.981 180.099, 424.990 167.750 L 425 154 397.387 154 L 369.773 154 370.197 167.750 M 441.167 168.250 C 441.515 180.958, 441.823 183.028, 444.019 187.377 C 447.095 193.470, 453.690 199.366, 459.734 201.425 C 473 205.945, 487.549 199.542, 493.644 186.500 C 495.735 182.026, 495.981 180.055, 495.990 167.750 L 496 154 468.389 154 L 440.778 154 441.167 168.250 M 215.679 205.609 C 199.940 222.669, 172.326 223.011, 155.132 206.358 L 149.640 201.039 143.851 206.560 C 126.760 222.862, 101.574 222.773, 84.205 206.348 L 78.542 200.993 74.521 205.160 C 69.228 210.646, 62.720 214.725, 56.250 216.611 L 51 218.142 51 321.571 L 51 425 57.500 425 L 64 425 64.004 340.250 C 64.007 257.447, 64.053 255.425, 65.995 252.241 C 67.088 250.448, 69.448 248.088, 71.241 246.995 C 74.371 245.086, 76.362 245.007, 121.500 245.007 C 166.638 245.007, 168.629 245.086, 171.759 246.995 C 173.552 248.088, 175.912 250.448, 177.005 252.241 C 178.947 255.425, 178.993 257.447, 178.996 340.250 L 179 425 320 425 L 461 425 461 321.571 L 461 218.142 455.750 216.611 C 449.280 214.725, 442.772 210.646, 437.479 205.160 L 433.458 200.993 427.795 206.348 C 410.426 222.773, 385.240 222.862, 368.149 206.560 L 362.360 201.039 356.868 206.358 C 350.413 212.610, 342.935 216.410, 333.759 218.100 C 320.519 220.540, 305.460 215.515, 296.321 205.609 L 291.607 200.500 286.021 206.075 C 269.120 222.939, 242.880 222.939, 225.979 206.075 L 220.393 200.500 215.679 205.609 M 200.898 247.270 C 193.738 252.053, 194.003 249.283, 194.002 319.364 C 194 381.319, 194.030 382.282, 196.094 385.954 C 197.246 388.003, 199.609 390.540, 201.344 391.590 C 204.393 393.435, 208.284 393.509, 316.504 393.767 L 428.508 394.033 433.004 391.767 C 441.394 387.537, 440.997 391.152, 440.995 319 C 440.993 257.399, 440.933 255.403, 439.005 252.241 C 437.912 250.448, 435.552 248.088, 433.759 246.995 C 430.625 245.084, 428.631 245.007, 381.684 245.004 C 352.338 245.001, 332.152 245.384, 331.071 245.962 C 328.027 247.591, 326.589 252.371, 328.160 255.646 C 330.702 260.948, 330.906 260.969, 379.750 260.985 L 425 261 425 319.500 L 425 378 317.500 378 L 210 378 210 319.538 L 210 261.076 256.473 260.788 C 301.432 260.509, 303.010 260.435, 304.894 258.500 C 308.075 255.234, 308.037 250.044, 304.811 247.039 C 302.670 245.044, 301.554 245, 253.459 245 L 204.296 245 200.898 247.270 M 80 343 L 80 425 121.500 425 L 163 425 163 343 L 163 261 121.500 261 L 80 261 80 343 M 138.174 328.314 C 136.241 330.373, 136 331.738, 136 340.640 C 136 349.812, 136.194 350.834, 138.314 352.826 C 141.389 355.714, 146.039 355.652, 148.826 352.686 C 150.759 350.627, 151 349.262, 151 340.360 C 151 331.188, 150.806 330.166, 148.686 328.174 C 145.611 325.286, 140.961 325.348, 138.174 328.314 M 19.856 442.516 C 16.163 444.522, 15 448.747, 15 460.149 L 15 470 256 470 L 497 470 497 460.149 C 497 448.562, 495.833 444.482, 491.941 442.470 C 487.697 440.275, 23.897 440.321, 19.856 442.516 M 0.413 460.500 C 0.414 470.400, 0.564 474.315, 0.746 469.199 C 0.928 464.084, 0.927 455.984, 0.744 451.199 C 0.561 446.415, 0.412 450.600, 0.413 460.500" stroke="none" fill="#040404" fill-rule="evenodd"/></svg>