<svg width="20" height="20" viewBox="0 0 20 20" fill="none" xmlns="http://www.w3.org/2000/svg">
<path d="M0 11C0 10.4477 0.447715 10 1 10H19C19.5523 10 20 10.4477 20 11V17C20 18.6569 18.6569 20 17 20H3C1.34315 20 0 18.6569 0 17V11Z" fill="#ADFF00"/>
<path d="M5 0C5.55228 0 6 0.447715 6 1V2H14V1C14 0.447715 14.4477 0 15 0C15.5523 0 16 0.447715 16 1V2H17C18.6569 2 20 3.34315 20 5V7C20 7.55228 19.5523 8 19 8H1C0.447716 8 0 7.55228 0 7V5C0 3.34315 1.34315 2 3 2H4V1C4 0.447715 4.44772 0 5 0Z" fill="#ADFF00"/>
</svg>
